<mxfile host="app.diagrams.net" agent="Mozilla/5.0 (Windows NT 10.0; Win64; x64) AppleWebKit/537.36 (KHTML, like Gecko) Chrome/137.0.0.0 Safari/537.36 Edg/137.0.0.0" version="27.1.6">
  <diagram name="第 1 页" id="dTdgmJblzX6b68JOFCId">
    <mxGraphModel dx="639" dy="365" grid="0" gridSize="10" guides="1" tooltips="1" connect="1" arrows="1" fold="1" page="1" pageScale="1" pageWidth="827" pageHeight="1169" math="0" shadow="0">
      <root>
        <mxCell id="0" />
        <mxCell id="1" parent="0" />
        <mxCell id="eHoJxzLwJRpgkZDSMcWg-1" value="Ring0" style="rounded=0;whiteSpace=wrap;html=1;" vertex="1" parent="1">
          <mxGeometry x="360" y="230" width="60" height="20" as="geometry" />
        </mxCell>
        <mxCell id="eHoJxzLwJRpgkZDSMcWg-2" value="Ring1" style="rounded=0;whiteSpace=wrap;html=1;" vertex="1" parent="1">
          <mxGeometry x="360" y="250" width="60" height="20" as="geometry" />
        </mxCell>
        <mxCell id="eHoJxzLwJRpgkZDSMcWg-3" value="Ring2" style="rounded=0;whiteSpace=wrap;html=1;" vertex="1" parent="1">
          <mxGeometry x="360" y="270" width="60" height="20" as="geometry" />
        </mxCell>
        <mxCell id="eHoJxzLwJRpgkZDSMcWg-4" value="Ring3" style="rounded=0;whiteSpace=wrap;html=1;" vertex="1" parent="1">
          <mxGeometry x="360" y="290" width="60" height="20" as="geometry" />
        </mxCell>
        <mxCell id="eHoJxzLwJRpgkZDSMcWg-5" value="CPL&amp;nbsp; RPL" style="text;html=1;align=center;verticalAlign=middle;resizable=0;points=[];autosize=1;strokeColor=none;fillColor=none;" vertex="1" parent="1">
          <mxGeometry x="424" y="228" width="71" height="26" as="geometry" />
        </mxCell>
        <mxCell id="eHoJxzLwJRpgkZDSMcWg-6" value="DPL" style="text;html=1;align=center;verticalAlign=middle;resizable=0;points=[];autosize=1;strokeColor=none;fillColor=none;" vertex="1" parent="1">
          <mxGeometry x="434.5" y="284" width="50" height="30" as="geometry" />
        </mxCell>
        <mxCell id="eHoJxzLwJRpgkZDSMcWg-7" value="" style="endArrow=classic;html=1;rounded=0;" edge="1" parent="1">
          <mxGeometry width="50" height="50" relative="1" as="geometry">
            <mxPoint x="459" y="250" as="sourcePoint" />
            <mxPoint x="459" y="289" as="targetPoint" />
          </mxGeometry>
        </mxCell>
        <mxCell id="eHoJxzLwJRpgkZDSMcWg-9" value="" style="rounded=0;whiteSpace=wrap;html=1;" vertex="1" parent="1">
          <mxGeometry x="294" y="397" width="132" height="16" as="geometry" />
        </mxCell>
        <mxCell id="eHoJxzLwJRpgkZDSMcWg-10" value="" style="rounded=0;whiteSpace=wrap;html=1;" vertex="1" parent="1">
          <mxGeometry x="294" y="413" width="132" height="16" as="geometry" />
        </mxCell>
        <mxCell id="eHoJxzLwJRpgkZDSMcWg-11" value="" style="rounded=0;whiteSpace=wrap;html=1;" vertex="1" parent="1">
          <mxGeometry x="294" y="429" width="132" height="16" as="geometry" />
        </mxCell>
        <mxCell id="eHoJxzLwJRpgkZDSMcWg-12" value="" style="rounded=0;whiteSpace=wrap;html=1;" vertex="1" parent="1">
          <mxGeometry x="294" y="445" width="132" height="16" as="geometry" />
        </mxCell>
        <mxCell id="eHoJxzLwJRpgkZDSMcWg-13" value="" style="rounded=0;whiteSpace=wrap;html=1;" vertex="1" parent="1">
          <mxGeometry x="294" y="461" width="132" height="16" as="geometry" />
        </mxCell>
        <mxCell id="eHoJxzLwJRpgkZDSMcWg-14" value="" style="rounded=0;whiteSpace=wrap;html=1;" vertex="1" parent="1">
          <mxGeometry x="294" y="477" width="132" height="16" as="geometry" />
        </mxCell>
        <mxCell id="eHoJxzLwJRpgkZDSMcWg-15" value="" style="rounded=0;whiteSpace=wrap;html=1;" vertex="1" parent="1">
          <mxGeometry x="294" y="493" width="132" height="16" as="geometry" />
        </mxCell>
        <mxCell id="eHoJxzLwJRpgkZDSMcWg-16" value="" style="rounded=0;whiteSpace=wrap;html=1;" vertex="1" parent="1">
          <mxGeometry x="294" y="509" width="132" height="16" as="geometry" />
        </mxCell>
        <mxCell id="eHoJxzLwJRpgkZDSMcWg-17" value="GDT" style="text;html=1;align=center;verticalAlign=middle;resizable=0;points=[];autosize=1;strokeColor=none;fillColor=none;" vertex="1" parent="1">
          <mxGeometry x="338.5" y="371" width="43" height="26" as="geometry" />
        </mxCell>
        <mxCell id="eHoJxzLwJRpgkZDSMcWg-18" value="" style="endArrow=classic;html=1;rounded=0;" edge="1" parent="1">
          <mxGeometry width="50" height="50" relative="1" as="geometry">
            <mxPoint x="233" y="397" as="sourcePoint" />
            <mxPoint x="289" y="397" as="targetPoint" />
            <Array as="points">
              <mxPoint x="283" y="397" />
            </Array>
          </mxGeometry>
        </mxCell>
        <mxCell id="eHoJxzLwJRpgkZDSMcWg-19" value="GDTR" style="text;html=1;align=center;verticalAlign=middle;whiteSpace=wrap;rounded=0;" vertex="1" parent="1">
          <mxGeometry x="179" y="383" width="60" height="30" as="geometry" />
        </mxCell>
        <mxCell id="eHoJxzLwJRpgkZDSMcWg-20" value="mov ds, ax" style="text;html=1;align=center;verticalAlign=middle;whiteSpace=wrap;rounded=0;" vertex="1" parent="1">
          <mxGeometry x="520" y="383" width="84" height="30" as="geometry" />
        </mxCell>
        <mxCell id="eHoJxzLwJRpgkZDSMcWg-26" value="" style="group" vertex="1" connectable="0" parent="1">
          <mxGeometry x="469" y="481.25" width="251" height="39.5" as="geometry" />
        </mxCell>
        <mxCell id="eHoJxzLwJRpgkZDSMcWg-22" value="" style="rounded=0;whiteSpace=wrap;html=1;" vertex="1" parent="eHoJxzLwJRpgkZDSMcWg-26">
          <mxGeometry width="230" height="25" as="geometry" />
        </mxCell>
        <mxCell id="eHoJxzLwJRpgkZDSMcWg-25" value="" style="rounded=0;whiteSpace=wrap;html=1;" vertex="1" parent="eHoJxzLwJRpgkZDSMcWg-26">
          <mxGeometry x="153" width="25" height="25" as="geometry" />
        </mxCell>
        <mxCell id="eHoJxzLwJRpgkZDSMcWg-32" value="RPL" style="text;html=1;align=center;verticalAlign=middle;whiteSpace=wrap;rounded=0;" vertex="1" parent="eHoJxzLwJRpgkZDSMcWg-26">
          <mxGeometry x="178" y="-2.5" width="60" height="30" as="geometry" />
        </mxCell>
        <mxCell id="eHoJxzLwJRpgkZDSMcWg-27" value="" style="endArrow=classic;html=1;rounded=0;" edge="1" parent="1">
          <mxGeometry width="50" height="50" relative="1" as="geometry">
            <mxPoint x="583.64" y="408.5" as="sourcePoint" />
            <mxPoint x="583.64" y="465.5" as="targetPoint" />
          </mxGeometry>
        </mxCell>
        <mxCell id="eHoJxzLwJRpgkZDSMcWg-28" value="SD" style="text;html=1;align=center;verticalAlign=middle;whiteSpace=wrap;rounded=0;" vertex="1" parent="1">
          <mxGeometry x="598" y="445" width="60" height="30" as="geometry" />
        </mxCell>
        <mxCell id="eHoJxzLwJRpgkZDSMcWg-30" style="edgeStyle=orthogonalEdgeStyle;rounded=0;orthogonalLoop=1;jettySize=auto;html=1;exitX=0.25;exitY=1;exitDx=0;exitDy=0;entryX=1;entryY=0.5;entryDx=0;entryDy=0;" edge="1" parent="1" source="eHoJxzLwJRpgkZDSMcWg-22" target="eHoJxzLwJRpgkZDSMcWg-11">
          <mxGeometry relative="1" as="geometry" />
        </mxCell>
        <mxCell id="eHoJxzLwJRpgkZDSMcWg-34" value="DPL" style="rounded=0;whiteSpace=wrap;html=1;" vertex="1" parent="1">
          <mxGeometry x="320" y="429" width="32" height="16" as="geometry" />
        </mxCell>
      </root>
    </mxGraphModel>
  </diagram>
</mxfile>
